HIERARCHY
ROOT Hips
{
  OFFSET -560.437 93.0064 908.995
  CHANNELS 6 Xposition Yposition Zposition Zrotation Xrotation Yrotation
  JOINT Spine
  {
    OFFSET 0 8 2.70537e-05
    CHANNELS 6 Xposition Yposition Zposition Zrotation Xrotation Yrotation
    JOINT Spine1
    {
      OFFSET 4.96931e-05 8 -6.9493e-05
      CHANNELS 6 Xposition Yposition Zposition Zrotation Xrotation Yrotation
      JOINT Spine2
      {
        OFFSET -2.37959e-05 8 3.35147e-05
        CHANNELS 6 Xposition Yposition Zposition Zrotation Xrotation Yrotation
        JOINT Spine3
        {
          OFFSET 0 8 0
          CHANNELS 6 Xposition Yposition Zposition Zrotation Xrotation Yrotation
          JOINT Neck
          {
            OFFSET 0.000298671 17 0.000269284
            CHANNELS 6 Xposition Yposition Zposition Zrotation Xrotation Yrotation
            JOINT Head
            {
              OFFSET -2.4522e-05 10.8 -4.50733e-05
              CHANNELS 6 Xposition Yposition Zposition Zrotation Xrotation Yrotation
              End Site
              {
                OFFSET 0 20.25 0
              }
            }
          }
          JOINT LeftShoulder
          {
            OFFSET 5.00035 16.9999 0.000351065
            CHANNELS 6 Xposition Yposition Zposition Zrotation Xrotation Yrotation
            JOINT LeftShoulder2
            {
              OFFSET 6.45 0 0
              CHANNELS 6 Xposition Yposition Zposition Zrotation Xrotation Yrotation
              JOINT LeftArm
              {
                OFFSET 6.45008 0.000485015 0.00117677
                CHANNELS 6 Xposition Yposition Zposition Zrotation Xrotation Yrotation
                JOINT LeftForeArm
                {
                  OFFSET -3.66708e-05 -32.4 -2
                  CHANNELS 6 Xposition Yposition Zposition Zrotation Xrotation Yrotation
                  JOINT LeftHand
                  {
                    OFFSET 7.89505e-05 -25.65 2.00005
                    CHANNELS 6 Xposition Yposition Zposition Zrotation Xrotation Yrotation
                    JOINT LeftHandThumb1
                    {
                      OFFSET -0.499973 -1.49995 2.64994
                      CHANNELS 6 Xposition Yposition Zposition Zrotation Xrotation Yrotation
                      JOINT LeftHandThumb2
                      {
                        OFFSET -4.97918e-05 -3.79996 3.69997
                        CHANNELS 6 Xposition Yposition Zposition Zrotation Xrotation Yrotation
                        JOINT LeftHandThumb3
                        {
                          OFFSET -5.0422e-05 -2.99996 2.70004
                          CHANNELS 6 Xposition Yposition Zposition Zrotation Xrotation Yrotation
                          End Site
                          {
                            OFFSET 3.05551e-05 -2.30001 1.79999
                          }
                        }
                      }
                    }
                    JOINT LeftHandIndex
                    {
                      OFFSET -1.46823e-05 -1.90004 1.60006
                      CHANNELS 6 Xposition Yposition Zposition Zrotation Xrotation Yrotation
                      JOINT LeftHandIndex1
                      {
                        OFFSET 0 -8.3 1.89994
                        CHANNELS 6 Xposition Yposition Zposition Zrotation Xrotation Yrotation
                        JOINT LeftHandIndex2
                        {
                          OFFSET -4.55323e-05 -4.49999 -5.68969e-05
                          CHANNELS 6 Xposition Yposition Zposition Zrotation Xrotation Yrotation
                          JOINT LeftHandIndex3
                          {
                            OFFSET 2.90802e-05 -3.4 -1.62269e-05
                            CHANNELS 6 Xposition Yposition Zposition Zrotation Xrotation Yrotation
                            End Site
                            {
                              OFFSET -4.69126e-05 -2.60009 9.17294e-05
                            }
                          }
                        }
                      }
                    }
                    JOINT LeftHandMiddle
                    {
                      OFFSET -0.250005 -2.19997 0.400109
                      CHANNELS 6 Xposition Yposition Zposition Zrotation Xrotation Yrotation
                      JOINT LeftHandMiddle1
                      {
                        OFFSET -5.18951e-05 -8.30008 0.999938
                        CHANNELS 6 Xposition Yposition Zposition Zrotation Xrotation Yrotation
                        JOINT LeftHandMiddle2
                        {
                          OFFSET 2.1108e-05 -4.64999 1.4357e-05
                          CHANNELS 6 Xposition Yposition Zposition Zrotation Xrotation Yrotation
                          JOINT LeftHandMiddle3
                          {
                            OFFSET 0 -3.3 1.3108e-05
                            CHANNELS 6 Xposition Yposition Zposition Zrotation Xrotation Yrotation
                            End Site
                            {
                              OFFSET -2.31006e-05 -2.69996 0
                            }
                          }
                        }
                      }
                    }
                    JOINT LeftHandRing
                    {
                      OFFSET -0.500031 -2.14998 -0.800015
                      CHANNELS 6 Xposition Yposition Zposition Zrotation Xrotation Yrotation
                      JOINT LeftHandRing1
                      {
                        OFFSET 2.18276e-05 -7.75003 -0.200021
                        CHANNELS 6 Xposition Yposition Zposition Zrotation Xrotation Yrotation
                        JOINT LeftHandRing2
                        {
                          OFFSET 0 -3.79997 0.000112886
                          CHANNELS 6 Xposition Yposition Zposition Zrotation Xrotation Yrotation
                          JOINT LeftHandRing3
                          {
                            OFFSET 2.88198e-05 -3.39993 3.20331e-05
                            CHANNELS 6 Xposition Yposition Zposition Zrotation Xrotation Yrotation
                            End Site
                            {
                              OFFSET 3.67502e-05 -2.60004 -3.24118e-05
                            }
                          }
                        }
                      }
                    }
                    JOINT LeftHandPinky
                    {
                      OFFSET -0.749985 -1.74999 -1.84997
                      CHANNELS 6 Xposition Yposition Zposition Zrotation Xrotation Yrotation
                      JOINT LeftHandPinky1
                      {
                        OFFSET 6.92736e-05 -7.15004 -1.00003
                        CHANNELS 6 Xposition Yposition Zposition Zrotation Xrotation Yrotation
                        JOINT LeftHandPinky2
                        {
                          OFFSET -2.64489e-05 -2.99996 -4.85733e-05
                          CHANNELS 6 Xposition Yposition Zposition Zrotation Xrotation Yrotation
                          JOINT LeftHandPinky3
                          {
                            OFFSET -4.66749e-05 -2.35006 6.55353e-05
                            CHANNELS 6 Xposition Yposition Zposition Zrotation Xrotation Yrotation
                            End Site
                            {
                              OFFSET 0 -2.10004 -4.50049e-05
                            }
                          }
                        }
                      }
                    }
                  }
                }
              }
            }
          }
          JOINT RightShoulder
          {
            OFFSET -4.99971 17.0001 0.000150362
            CHANNELS 6 Xposition Yposition Zposition Zrotation Xrotation Yrotation
            JOINT RightShoulder2
            {
              OFFSET -6.45 0 0
              CHANNELS 6 Xposition Yposition Zposition Zrotation Xrotation Yrotation
              JOINT RightArm
              {
                OFFSET -6.44997 0.00065539 0.00280728
                CHANNELS 6 Xposition Yposition Zposition Zrotation Xrotation Yrotation
                JOINT RightForeArm
                {
                  OFFSET 0 -32.4 -2.00006
                  CHANNELS 6 Xposition Yposition Zposition Zrotation Xrotation Yrotation
                  JOINT RightHand
                  {
                    OFFSET -4.56889e-05 -25.65 2.0001
                    CHANNELS 6 Xposition Yposition Zposition Zrotation Xrotation Yrotation
                    JOINT RightHandThumb1
                    {
                      OFFSET 0.500002 -1.49998 2.65004
                      CHANNELS 6 Xposition Yposition Zposition Zrotation Xrotation Yrotation
                      JOINT RightHandThumb2
                      {
                        OFFSET 0.000174832 -3.80002 3.70003
                        CHANNELS 6 Xposition Yposition Zposition Zrotation Xrotation Yrotation
                        JOINT RightHandThumb3
                        {
                          OFFSET -8.19145e-05 -2.99997 2.7
                          CHANNELS 6 Xposition Yposition Zposition Zrotation Xrotation Yrotation
                          End Site
                          {
                            OFFSET -4.03436e-05 -2.30003 1.79998
                          }
                        }
                      }
                    }
                    JOINT RightHandIndex
                    {
                      OFFSET 0 -1.89992 1.60006
                      CHANNELS 6 Xposition Yposition Zposition Zrotation Xrotation Yrotation
                      JOINT RightHandIndex1
                      {
                        OFFSET 2.51896e-05 -8.30002 1.89998
                        CHANNELS 6 Xposition Yposition Zposition Zrotation Xrotation Yrotation
                        JOINT RightHandIndex2
                        {
                          OFFSET -2.36469e-05 -4.49999 3.37753e-05
                          CHANNELS 6 Xposition Yposition Zposition Zrotation Xrotation Yrotation
                          JOINT RightHandIndex3
                          {
                            OFFSET -4.21568e-05 -3.40004 -7.88818e-05
                            CHANNELS 6 Xposition Yposition Zposition Zrotation Xrotation Yrotation
                            End Site
                            {
                              OFFSET -3.43319e-05 -2.59998 7.31713e-05
                            }
                          }
                        }
                      }
                    }
                    JOINT RightHandMiddle
                    {
                      OFFSET 0.250082 -2.19997 0.400015
                      CHANNELS 6 Xposition Yposition Zposition Zrotation Xrotation Yrotation
                      JOINT RightHandMiddle1
                      {
                        OFFSET -1.71223e-05 -8.3 1.00004
                        CHANNELS 6 Xposition Yposition Zposition Zrotation Xrotation Yrotation
                        JOINT RightHandMiddle2
                        {
                          OFFSET 2.02081e-05 -4.64998 -7.67336e-05
                          CHANNELS 6 Xposition Yposition Zposition Zrotation Xrotation Yrotation
                          JOINT RightHandMiddle3
                          {
                            OFFSET -2.24494e-05 -3.29996 2.89396e-05
                            CHANNELS 6 Xposition Yposition Zposition Zrotation Xrotation Yrotation
                            End Site
                            {
                              OFFSET -4.59489e-05 -2.69996 0
                            }
                          }
                        }
                      }
                    }
                    JOINT RightHandRing
                    {
                      OFFSET 0.499924 -2.14995 -0.800002
                      CHANNELS 6 Xposition Yposition Zposition Zrotation Xrotation Yrotation
                      JOINT RightHandRing1
                      {
                        OFFSET 0 -7.74993 -0.199956
                        CHANNELS 6 Xposition Yposition Zposition Zrotation Xrotation Yrotation
                        JOINT RightHandRing2
                        {
                          OFFSET 2.52203e-05 -3.80002 0
                          CHANNELS 6 Xposition Yposition Zposition Zrotation Xrotation Yrotation
                          JOINT RightHandRing3
                          {
                            OFFSET -4.20052e-05 -3.40004 -1.93332e-05
                            CHANNELS 6 Xposition Yposition Zposition Zrotation Xrotation Yrotation
                            End Site
                            {
                              OFFSET 5.80064e-05 -2.60005 9.70745e-05
                            }
                          }
                        }
                      }
                    }
                    JOINT RightHandPinky
                    {
                      OFFSET 0.749991 -1.74994 -1.84999
                      CHANNELS 6 Xposition Yposition Zposition Zrotation Xrotation Yrotation
                      JOINT RightHandPinky1
                      {
                        OFFSET 6.11264e-05 -7.15003 -1.00002
                        CHANNELS 6 Xposition Yposition Zposition Zrotation Xrotation Yrotation
                        JOINT RightHandPinky2
                        {
                          OFFSET 3.3096e-05 -3.00004 9.21935e-05
                          CHANNELS 6 Xposition Yposition Zposition Zrotation Xrotation Yrotation
                          JOINT RightHandPinky3
                          {
                            OFFSET 0 -2.34996 -5.70419e-05
                            CHANNELS 6 Xposition Yposition Zposition Zrotation Xrotation Yrotation
                            End Site
                            {
                              OFFSET 3.20145e-05 -2.10001 2.13224e-05
                            }
                          }
                        }
                      }
                    }
                  }
                }
              }
            }
          }
        }
      }
    }
  }
  JOINT LeftUpLeg
  {
    OFFSET 7.99998 0 1.52794e-05
    CHANNELS 6 Xposition Yposition Zposition Zrotation Xrotation Yrotation
    JOINT LeftLeg
    {
      OFFSET -5.45418e-05 -45 -0.999993
      CHANNELS 6 Xposition Yposition Zposition Zrotation Xrotation Yrotation
      JOINT LeftFoot
      {
        OFFSET -3.68869e-05 -41 -2.00001
        CHANNELS 6 Xposition Yposition Zposition Zrotation Xrotation Yrotation
        JOINT LeftToeBase
        {
          OFFSET 0 -7.5 12.4999
          CHANNELS 6 Xposition Yposition Zposition Zrotation Xrotation Yrotation
          JOINT LeftFootToe
          {
            OFFSET 0 0 4
            CHANNELS 6 Xposition Yposition Zposition Zrotation Xrotation Yrotation
            End Site
            {
              OFFSET 0 0 0
            }
          }
        }
      }
    }
  }
  JOINT RightUpLeg
  {
    OFFSET -7.99998 0 -1.52794e-05
    CHANNELS 6 Xposition Yposition Zposition Zrotation Xrotation Yrotation
    JOINT RightLeg
    {
      OFFSET -2.99327e-05 -45 -0.999999
      CHANNELS 6 Xposition Yposition Zposition Zrotation Xrotation Yrotation
      JOINT RightFoot
      {
        OFFSET -4.47258e-05 -41 -1.99996
        CHANNELS 6 Xposition Yposition Zposition Zrotation Xrotation Yrotation
        JOINT RightToeBase
        {
          OFFSET 0 -7.5 12.5
          CHANNELS 6 Xposition Yposition Zposition Zrotation Xrotation Yrotation
          JOINT RightFootToe
          {
            OFFSET 0 0 4
            CHANNELS 6 Xposition Yposition Zposition Zrotation Xrotation Yrotation
            End Site
            {
              OFFSET 0 0 0
            }
          }
        }
      }
    }
  }
}
MOTION
Frames:	3
Frame Time:	0.0111111
-542.666 92.4655 897.675 -0.651795 -1.08529 -120.442 0 8 1.13687e-13 -0.284681 2.55678 -1.56998 0 8 0 -0.543019 1.28513 -1.82729 0 8 0 -0.276633 0.640464 -0.915199 0 8 0 -0.277806 0.636811 -0.911789 2.27374e-13 17 5.68434e-14 -0.739337 3.72464 15.1833 0 10.8 -5.68434e-14 0.724021 -6.04399 35.8793 5 17 0 -2.60494 4.72355 -7.53828 6.45 0 -5.68434e-14 -1.52456 0.72053 -1.6132 6.45 0 -5.68434e-14 31.9237 -20.0702 82.484 -5.68434e-14 -32.4 -2 -61.1755 -28.1395 -26.9703 0 -25.65 2 -1.12187 50.1079 26.7556 -0.5 -1.5 2.65 -33.2879 -55.8666 -53.571 0 -3.8 3.7 0.113891 31.3306 -0.0714978 -1.13687e-13 -3 2.7 0.0804817 59.7163 -0.0854632 -1.13687e-13 -1.9 1.6 -7.02001e-06 3.26398e-06 1.10661e-05 -1.13687e-13 -8.3 1.9 -42.9899 -30.8411 -11.145 0 -4.5 0 -2.50669 -0.0407478 0.014677 0 -3.4 0 3.04938e-05 -0.0355971 0.0193143 -0.25 -2.2 0.4 -7.02001e-06 3.26398e-06 1.10661e-05 0 -8.3 1 -24.4631 -19.6037 -3.54233 0 -4.65 0 -4.10489 0.00710422 0.0054832 0 -3.3 -1.13687e-13 -0.745205 -0.0221622 0.00539932 -0.5 -2.15 -0.8 -7.02001e-06 3.26398e-06 1.10661e-05 -1.13687e-13 -7.75 -0.2 -14.281 -15.4253 -1.22982 5.68434e-14 -3.8 0 -27.3506 -0.0124941 0.0146101 0 -3.4 0 -19.3847 0.0270098 -0.0095882 -0.75 -1.75 -1.85 -7.02001e-06 3.26398e-06 1.10661e-05 0 -7.15 -1 -12.6946 -18.6795 -1.11041 5.68434e-14 -3 1.13687e-13 -13.8348 -0.0721899 -0.0297916 5.68434e-14 -2.35 0 -0.0462434 -0.0702284 -0.0143205 -5 17 5.68434e-14 7.32318 8.32641 3.06736 -6.45 0 0 -0.909464 -0.753558 -2.16293 -6.45 0 0 -52.3734 24.8148 -35.8761 -5.68434e-14 -32.4 -2 21.5863 -44.6116 21.217 0 -25.65 2 -20.308 -26.602 7.11703 0.5 -1.5 2.65 32.9805 47.6546 -138.867 0 -3.8 3.7 0.630178 40.3136 0.200296 0 -3 2.7 0.0481751 25.3062 -0.0846616 4.26326e-14 -1.9 1.6 -5.22742e-05 2.53413e-05 -3.21431e-05 -5.68434e-14 -8.3 1.9 27.0916 -1.35683 0.107493 -5.68434e-14 -4.5 0 6.3342 0.00826972 -0.000361103 -1.13687e-13 -3.4 1.13687e-13 4.10694 0.00713697 -0.000478661 0.25 -2.2 0.4 -5.22742e-05 2.53413e-05 -3.21431e-05 0 -8.3 1 8.18998 6.58584 -0.536772 5.68434e-14 -4.65 -5.68434e-14 64.6161 0.132231 -0.0941984 0 -3.3 1.13687e-13 45.8055 0.0249731 -0.157054 0.5 -2.15 -0.8 -5.22742e-05 2.53413e-05 -3.21431e-05 -1.42109e-14 -7.75 -0.2 1.57098 6.7895 -0.190746 0 -3.8 0 39.0558 0.178449 -0.019849 0 -3.4 1.13687e-13 27.7845 0.0923805 -0.0658127 0.75 -1.75 -1.85 -5.22742e-05 2.53413e-05 -3.21431e-05 1.42109e-14 -7.15 -1 5.18132 18.8576 -1.59773 -5.68434e-14 -3 -5.68434e-14 10.3621 0.105267 0.0246882 -5.68434e-14 -2.35 1.13687e-13 8.75 0.081901 0.00700338 8 0 5.68434e-14 3.1783 -29.4308 -39.6191 0 -45 -1 4.67745 23.2419 9.03059 0 -41 -2 -26.1707 2.38653 -19.7797 1.13687e-13 -7.5 12.5 4.27327e-06 -6.58282e-06 -9.32286e-06 1.13687e-13 1.77636e-15 4 4.34208 6.1709 61.818 -8 0 5.68434e-14 -20.5368 -19.9726 -12.402 0 -45 -1 -0.625911 25.8172 8.23611 0 -41 -2 13.405 -3.40834 10.6526 -2.27374e-13 -7.5 12.5 -7.81073e-07 -1.08183e-05 -3.99012e-05 1.13687e-13 3.55271e-15 4 -9.98317 0.553832 40.7339 
-542.907 92.5435 897.806 -0.644153 -1.0714 -120.555 -2.27374e-13 8 0 -0.289747 2.72155 -1.53766 0 8 5.68434e-14 -0.527964 1.3242 -1.79704 0 8 5.68434e-14 -0.269172 0.660095 -0.900078 0 8 0 -0.26999 0.656017 -0.900309 0 17 -1.13687e-13 -0.73296 3.65595 15.2169 0 10.8 -5.68434e-14 0.66522 -6.07081 35.9574 5 17 0 -2.66869 4.66086 -7.46837 6.45 0 -5.68434e-14 -1.52587 0.719726 -1.62476 6.45 2.84217e-14 -5.68434e-14 32.0433 -19.8397 82.9455 5.68434e-14 -32.4 -2 -61.1431 -28.0803 -27.2064 1.13687e-13 -25.65 2 -1.28959 50.2366 26.5061 -0.5 -1.5 2.65 -33.3333 -56.1494 -52.9234 0 -3.8 3.7 0.114012 31.4133 -0.0715608 -1.13687e-13 -3 2.7 0.0811354 59.9359 -0.0860283 0 -1.9 1.6 -7.02001e-06 3.26398e-06 1.10661e-05 0 -8.3 1.9 -43.0347 -30.8343 -11.1552 -5.68434e-14 -4.5 1.13687e-13 -2.50669 -0.0407478 0.014677 0 -3.4 0 3.04938e-05 -0.0355971 0.0193143 -0.25 -2.2 0.4 -7.02001e-06 3.26398e-06 1.10661e-05 1.13687e-13 -8.3 1 -24.4788 -19.8692 -3.60753 -5.68434e-14 -4.65 0 -3.69457 0.00710422 0.00236091 0 -3.3 0 -0.354662 -0.0221622 0.00247176 -0.5 -2.15 -0.8 -7.02001e-06 3.26398e-06 1.10661e-05 0 -7.75 -0.2 -14.3779 -15.5512 -1.24745 1.13687e-13 -3.8 0 -27.7613 -0.0124941 0.0146101 -5.68434e-14 -3.4 -1.13687e-13 -19.6304 0.0270098 -0.0095882 -0.75 -1.75 -1.85 -7.02001e-06 3.26398e-06 1.10661e-05 -1.13687e-13 -7.15 -1 -12.9296 -18.8509 -1.14383 5.68434e-14 -3 0 -13.8003 -0.0748059 -0.0297916 0 -2.35 0 -0.0881467 -0.0727473 -0.0143205 -5 17 -1.13687e-13 7.29532 8.31341 3.19084 -6.45 0 -5.68434e-14 -0.891038 -0.753946 -2.14918 -6.45 2.84217e-14 -5.68434e-14 -52.5305 25.213 -35.591 5.68434e-14 -32.4 -2 22.6837 -45.39 22.479 1.13687e-13 -25.65 2 -20.3376 -26.629 7.51767 0.5 -1.5 2.65 33.7774 47.7244 -140.389 1.13687e-13 -3.8 3.7 0.631949 39.9253 0.199155 0 -3 2.7 0.0481751 25.3062 -0.0846616 0 -1.9 1.6 -5.22742e-05 2.53413e-05 -3.21431e-05 -4.26326e-14 -8.3 1.9 28.2509 -1.08885 0.0328258 0 -4.5 0 6.34704 0.00718724 -0.00023197 0 -3.4 1.13687e-13 4.11936 0.00628223 -0.000430857 0.25 -2.2 0.4 -5.22742e-05 2.53413e-05 -3.21431e-05 -2.84217e-14 -8.3 1 9.81351 6.64948 -0.668943 0 -4.65 5.68434e-14 67.7209 0.126389 -0.107522 0 -3.3 5.68434e-14 48.9837 0.00385459 -0.173297 0.5 -2.15 -0.8 -5.22742e-05 2.53413e-05 -3.21431e-05 1.42109e-14 -7.75 -0.2 1.89946 6.79153 -0.220607 2.84217e-14 -3.8 5.68434e-14 43.1606 0.18208 -0.0548091 0 -3.4 -5.68434e-14 30.4377 0.0865506 -0.0959305 0.75 -1.75 -1.85 -5.22742e-05 2.53413e-05 -3.21431e-05 0 -7.15 -1 5.2621 18.9925 -1.62874 0 -3 -2.84217e-14 12.8522 0.118081 0.011489 -5.68434e-14 -2.35 2.84217e-14 10.6202 0.086229 -0.00674643 8 1.42109e-14 5.68434e-14 3.00825 -29.3941 -39.3694 0 -45 -1 4.79421 23.4357 8.91282 -1.13687e-13 -41 -2 -26.0197 2.31409 -20.0282 0 -7.5 12.5 4.27327e-06 -6.58282e-06 -9.32286e-06 0 0 4 4.23201 5.80446 61.812 -8 1.42109e-14 5.68434e-14 -20.6761 -19.8066 -12.1777 1.13687e-13 -45 -1 -0.593679 25.4778 8.1025 -1.13687e-13 -41 -2 13.3782 -3.36116 9.19891 1.13687e-13 -7.5 12.5 -7.81073e-07 -1.08183e-05 -3.99012e-05 0 0 4 -9.75355 0.420197 40.4011 
-543.148 92.6159 897.942 -0.640973 -1.06361 -120.686 0 8 -5.68434e-14 -0.313155 2.8866 -1.4945 0 8 5.68434e-14 -0.513387 1.36518 -1.76755 0 8 0 -0.261952 0.68068 -0.885339 2.27374e-13 8 -5.68434e-14 -0.262081 0.679822 -0.885375 0 17 0 -0.731835 3.58401 15.2511 0 10.8 0 0.61944 -6.08976 36.0375 5 17 -5.68434e-14 -2.72407 4.59048 -7.39649 6.45 -2.84217e-14 0 -1.52617 0.718218 -1.64293 6.45 -2.84217e-14 5.68434e-14 32.1439 -19.6111 83.3817 -5.68434e-14 -32.4 -2 -61.1003 -28.0333 -27.4391 -1.13687e-13 -25.65 2 -1.40895 50.3643 26.218 -0.5 -1.5 2.65 -33.3526 -56.4463 -52.2736 0 -3.8 3.7 0.114134 31.4965 -0.0716243 0 -3 2.7 0.0818781 60.1818 -0.086672 0 -1.9 1.6 -7.02001e-06 3.26398e-06 1.10661e-05 0 -8.3 1.9 -42.9815 -30.8446 -11.1455 5.68434e-14 -4.5 0 -2.50669 -0.0407478 0.014677 0 -3.4 1.13687e-13 3.04938e-05 -0.0355971 0.0193143 -0.25 -2.2 0.4 -7.02001e-06 3.26398e-06 1.10661e-05 0 -8.3 1 -24.4706 -20.1252 -3.66676 0 -4.65 0 -3.37405 0.00710422 -0.000560016 0 -3.3 0 -0.0495875 -0.0221622 -0.000272763 -0.5 -2.15 -0.8 -7.02001e-06 3.26398e-06 1.10661e-05 -1.13687e-13 -7.75 -0.2 -14.4881 -15.6466 -1.26444 5.68434e-14 -3.8 -1.13687e-13 -28.4449 -0.0124941 0.0146101 0 -3.4 0 -20.042 0.0270098 -0.0095882 -0.75 -1.75 -1.85 -7.02001e-06 3.26398e-06 1.10661e-05 0 -7.15 -1 -13.2131 -18.9877 -1.18423 0 -3 1.13687e-13 -13.825 -0.0774083 -0.0297916 0 -2.35 0 -0.231463 -0.0752444 -0.0143205 -5 17 0 7.26773 8.29622 3.31234 -6.45 2.84217e-14 0 -0.866424 -0.753914 -2.14966 -6.45 2.84217e-14 -5.68434e-14 -52.6923 25.5855 -35.3395 -5.68434e-14 -32.4 -2 23.7973 -46.1103 23.7433 0 -25.65 2 -20.3139 -26.5816 7.96583 0.5 -1.5 2.65 34.4731 47.72 -141.847 -5.68434e-14 -3.8 3.7 0.633407 39.6021 0.198223 -1.13687e-13 -3 2.7 0.0481751 25.3062 -0.0846616 5.68434e-14 -1.9 1.6 -5.22742e-05 2.53413e-05 -3.21431e-05 -2.84217e-14 -8.3 1.9 29.4073 -0.840534 -0.0416045 -5.68434e-14 -4.5 -1.13687e-13 6.30946 0.00487373 0.00111233 -1.13687e-13 -3.4 1.13687e-13 4.08484 0.00430447 0.000772925 0.25 -2.2 0.4 -5.22742e-05 2.53413e-05 -3.21431e-05 -4.26326e-14 -8.3 1 11.5751 6.65062 -0.805444 0 -4.65 0 70.5705 0.114563 -0.111472 -1.13687e-13 -3.3 -5.68434e-14 51.9265 -0.0126383 -0.175373 0.5 -2.15 -0.8 -5.22742e-05 2.53413e-05 -3.21431e-05 1.42109e-14 -7.75 -0.2 2.33482 6.83092 -0.263362 2.84217e-14 -3.8 0 47.4445 0.17868 -0.0871113 0 -3.4 0 33.3998 0.0725318 -0.122225 0.75 -1.75 -1.85 -5.22742e-05 2.53413e-05 -3.21431e-05 0 -7.15 -1 5.29975 19.0456 -1.64398 0 -3 0 15.8189 0.14044 0.00211189 -5.68434e-14 -2.35 -2.84217e-14 12.7468 0.096155 -0.0210357 8 0 0 2.83596 -29.3672 -39.0911 0 -45 -1 4.91256 23.6468 8.79481 -1.13687e-13 -41 -2 -25.8684 2.23875 -20.304 0 -7.5 12.5 4.27327e-06 -6.58282e-06 -9.32286e-06 0 0 4 4.10954 5.45054 61.7989 -8 1.42109e-14 0 -20.7979 -19.6427 -11.9766 0 -45 -1 -0.565648 25.1543 7.97584 -1.13687e-13 -41 -2 13.3241 -3.34307 7.63435 1.13687e-13 -7.5 12.5 -7.81073e-07 -1.08183e-05 -3.99012e-05 0 0 4 -9.45353 0.274209 40.5382 
